<svg xmlns="http://www.w3.org/2000/svg" width="15.842" height="15.842" viewBox="0 0 15.842 15.842">
  <path id="Icon_awesome-exclamation-circle" data-name="Icon awesome-exclamation-circle" d="M16.4,8.484A7.921,7.921,0,1,1,8.484.563,7.921,7.921,0,0,1,16.4,8.484Zm-7.921,1.6A1.469,1.469,0,1,0,9.953,11.55,1.469,1.469,0,0,0,8.484,10.081ZM7.089,4.8l.237,4.344a.383.383,0,0,0,.383.362H9.259a.383.383,0,0,0,.383-.362L9.879,4.8A.383.383,0,0,0,9.5,4.4H7.471A.383.383,0,0,0,7.089,4.8Z" transform="translate(-0.563 -0.563)" fill="#f36d6a"/>
</svg>
