<svg xmlns="http://www.w3.org/2000/svg" width="136.668" height="136.668" viewBox="0 0 136.668 136.668">
  <g id="search-through" transform="translate(72.409 -7.776) rotate(45)">
    <path id="Path_877" data-name="Path 877" d="M92.875,43.937A41.936,41.936,0,1,0,41.822,84.871V87.7H40a1.823,1.823,0,0,0-1.823,1.823v9.117A1.823,1.823,0,0,0,40,100.46h1.823v9.117a1.823,1.823,0,0,0,1.823,1.823H58.232a1.823,1.823,0,0,0,1.823-1.823V100.46h1.823A1.823,1.823,0,0,0,63.7,98.637V89.52A1.823,1.823,0,0,0,61.878,87.7H60.055V84.871a41.907,41.907,0,0,0,32.82-40.934ZM56.408,107.753H45.468V100.46h10.94Zm3.647-10.94H41.822v-5.47H60.055ZM57.9,81.589a1.8,1.8,0,0,0-1.5,1.787V87.7H45.468V83.375a1.8,1.8,0,0,0-1.5-1.787,38.29,38.29,0,1,1,13.93,0Z" transform="translate(0 0)" fill="#f36d6a"/>
    <path id="Path_878" data-name="Path 878" d="M47.643,6A34.643,34.643,0,1,0,82.286,40.643,34.643,34.643,0,0,0,47.643,6Zm0,65.64a31,31,0,1,1,31-31A31,31,0,0,1,47.643,71.64Z" transform="translate(3.295 3.294)" fill="#f36d6a" opacity="0.4"/>
    <path id="Path_879" data-name="Path 879" d="M64.532,23.884,41.921,13.16a1.615,1.615,0,0,0-1.389,0L17.922,23.884a1.605,1.605,0,0,0,.21,2.988l6.945,2.18v11.79a1.615,1.615,0,0,0,.953,1.47,37.728,37.728,0,0,0,15.2,2.988,37.727,37.727,0,0,0,15.2-2.988,1.615,1.615,0,0,0,.953-1.47V29.052l3.23-1.017v5.96h3.23V27.033l.485-.162a1.605,1.605,0,0,0,.21-2.988ZM54.147,39.776a35.353,35.353,0,0,1-12.92,2.293,35.353,35.353,0,0,1-12.92-2.293V30.053l12.436,3.876a1.969,1.969,0,0,0,.969,0l12.436-3.876Zm-12.92-9.093L23.041,25.03l18.185-8.624L59.412,25.03Z" transform="translate(-0.242 51.661) rotate(-45)" fill="#f36d6a"/>
  </g>
</svg>
