<svg xmlns="http://www.w3.org/2000/svg" width="18" height="4" viewBox="0 0 18 4">
  <path id="_" data-name="…" d="M14.5,3.437A2.044,2.044,0,0,1,14,2.036,2.165,2.165,0,0,1,14.5.582,1.844,1.844,0,0,1,15.982,0a1.9,1.9,0,0,1,1.5.582A2.119,2.119,0,0,1,18,2.036a2,2,0,0,1-.513,1.4,1.932,1.932,0,0,1-1.5.564A1.875,1.875,0,0,1,14.5,3.437Zm-7,0a2.041,2.041,0,0,1-.5-1.4A2.161,2.161,0,0,1,7.5.582,1.843,1.843,0,0,1,8.983,0a1.9,1.9,0,0,1,1.5.582A2.119,2.119,0,0,1,11,2.036a2,2,0,0,1-.513,1.4A1.931,1.931,0,0,1,8.983,4,1.874,1.874,0,0,1,7.5,3.437Zm-7,0a2.045,2.045,0,0,1-.5-1.4A2.166,2.166,0,0,1,.5.582,1.844,1.844,0,0,1,1.983,0a1.9,1.9,0,0,1,1.5.582A2.119,2.119,0,0,1,4,2.036a2,2,0,0,1-.513,1.4A1.931,1.931,0,0,1,1.983,4,1.875,1.875,0,0,1,.5,3.437Z" fill="#444"/>
</svg>
